<?xml version="1.0" encoding="UTF-8" standalone="no"?>
<svg
   xmlns:dc="http://purl.org/dc/elements/1.1/"
   xmlns:cc="http://creativecommons.org/ns#"
   xmlns:rdf="http://www.w3.org/1999/02/22-rdf-syntax-ns#"
   xmlns:svg="http://www.w3.org/2000/svg"
   xmlns="http://www.w3.org/2000/svg"
   xmlns:sodipodi="http://sodipodi.sourceforge.net/DTD/sodipodi-0.dtd"
   xmlns:inkscape="http://www.inkscape.org/namespaces/inkscape"
   width="297mm"
   height="297mm"
   viewBox="0 0 297 297"
   version="1.1"
   id="svg8"
   inkscape:version="1.0.2-2 (e86c870879, 2021-01-15)"
   sodipodi:docname="R Logo.svg">
  <defs
     id="defs2" />
  <sodipodi:namedview
     id="base"
     pagecolor="#ffffff"
     bordercolor="#666666"
     borderopacity="1.0"
     inkscape:pageopacity="0.0"
     inkscape:pageshadow="2"
     inkscape:zoom="0.22627417"
     inkscape:cx="2570.7635"
     inkscape:cy="1725.4936"
     inkscape:document-units="mm"
     inkscape:current-layer="layer1"
     inkscape:document-rotation="0"
     showgrid="false"
     inkscape:window-width="1920"
     inkscape:window-height="1009"
     inkscape:window-x="-8"
     inkscape:window-y="-8"
     inkscape:window-maximized="1" />
  <metadata
     id="metadata5">
    <rdf:RDF>
      <cc:Work
         rdf:about="">
        <dc:format>image/svg+xml</dc:format>
        <dc:type
           rdf:resource="http://purl.org/dc/dcmitype/StillImage" />
        <dc:title></dc:title>
      </cc:Work>
    </rdf:RDF>
  </metadata>
  <g
     inkscape:label="Layer 1"
     inkscape:groupmode="layer"
     id="layer1">
    <g
       aria-label="R"
       id="text835-1"
       style="font-style:normal;font-weight:normal;font-size:172.263px;line-height:1.25;font-family:sans-serif;fill:#cb6b20;fill-opacity:1;stroke:none;stroke-width:0.897204"
       transform="matrix(1.7952823,0,0,1.7952823,-43.051745,-109.52099)">
      <path
         d="m 159.81755,123.866 c 0,10.31783 -2.88787,19.45809 -8.66362,27.42077 -5.10284,6.95333 -11.49541,11.94402 -19.17771,14.97208 1.62618,2.52338 5.63556,7.82249 12.02813,15.89732 3.19628,3.70096 9.41117,12.054 15.97197,18.11012 -2.63553,0.95328 -9.01971,1.30742 -17.89725,4.42066 -6.48087,2.62597 -13.0468,5.00213 -18.59825,7.74982 -1.62618,-2.01871 -5.24303,-7.2337 -10.85055,-15.64498 -2.57945,-4.26171 -6.36453,-11.43934 -11.35522,-21.53287 h -0.16823 l -0.0393,34.78486 -37.199258,2.40543 c -0.616827,-12.22439 0.117624,-44.94509 -1.27115,-76.246 -1.573754,-26.16389 -2.723296,-31.96536 -6.121319,-61.236605 15.420679,-1.626181 19.87385,-1.904732 32.602919,-1.904732 47.159238,0 70.738858,16.934709 70.738858,50.804127 z m -36.09688,17.56799 c 0.20045,-1.93823 0.77907,-5.48867 0.54186,-8.39738 -0.45031,-5.52164 -3.40446,-11.35648 -5.95074,-14.3439 -2.33156,-2.05076 -5.12439,-4.79414 -8.15441,-6.54015 -4.97684,-2.86783 -9.55146,-4.85998 -12.61844,-4.72214 l 4.40901,49.74425 c 4.65424,0 8.8038,-1.03739 12.44869,-3.11218 4.82247,-2.69161 8.92313,-9.70677 9.32403,-12.6285 z"
         style="font-style:normal;font-variant:normal;font-weight:normal;font-stretch:normal;font-size:172.263px;font-family:'Showcard Gothic';-inkscape-font-specification:'Showcard Gothic';fill:#cb6b20;fill-opacity:1;stroke-width:0.897204"
         id="path837"
         sodipodi:nodetypes="scccccccccccccssscscsccsc" />
    </g>
  </g>
</svg>
